<svg xmlns="http://www.w3.org/2000/svg" viewBox="0 0 99.68 148.57">
  <defs>
    <style>
      .cls-1 {
        fill: #de753c;
      }
    </style>
  </defs>
  <g id="Layer_2" data-name="Layer 2">
    <g id="Layer_1-2" data-name="Layer 1">
      <path class="cls-1" d="M95.42,148.57H4.26A4.26,4.26,0,0,1,0,144.31V4.26A4.26,4.26,0,0,1,4.26,0H93.37a4.26,4.26,0,0,1,4.26,4.26V55.77a4.29,4.29,0,0,1-1,2.79L81.37,76.13,98,89.05a4.27,4.27,0,0,1,1.65,3.37v51.89A4.26,4.26,0,0,1,95.42,148.57ZM20.54,132.28h58.6A4.26,4.26,0,0,0,83.4,128V100.4A4.27,4.27,0,0,0,81.75,97L58.11,78.7A4.27,4.27,0,0,0,52.5,79L41.64,89.81a4.26,4.26,0,0,1-6,0l-5.46-5.51a4.25,4.25,0,0,1,0-6l21-20.83a4.26,4.26,0,0,1,5.61-.35l11.69,9.07L80.31,52.49a4.29,4.29,0,0,0,1-2.79V20.54a4.26,4.26,0,0,0-4.26-4.26H20.54a4.26,4.26,0,0,0-4.26,4.26V128A4.26,4.26,0,0,0,20.54,132.28Z"/>
    </g>
  </g>
</svg>
